<?xml version="1.0" encoding="UTF-8" standalone="no"?>
<svg
   xmlns:dc="http://purl.org/dc/elements/1.1/"
   xmlns:cc="http://creativecommons.org/ns#"
   xmlns:rdf="http://www.w3.org/1999/02/22-rdf-syntax-ns#"
   xmlns:svg="http://www.w3.org/2000/svg"
   xmlns="http://www.w3.org/2000/svg"
   xmlns:sodipodi="http://sodipodi.sourceforge.net/DTD/sodipodi-0.dtd"
   xmlns:inkscape="http://www.inkscape.org/namespaces/inkscape"
   class="bi bi-box-arrow-in-down"
   width="1em"
   height="1em"
   viewBox="0 0 16 16"
   fill="currentColor"
   version="1.1"
   id="svg3752"
   sodipodi:docname="rightarrow.svg"
   inkscape:version="0.92.5 (2060ec1f9f, 2020-04-08)">
  <metadata
     id="metadata3758">
    <rdf:RDF>
      <cc:Work
         rdf:about="">
        <dc:format>image/svg+xml</dc:format>
        <dc:type
           rdf:resource="http://purl.org/dc/dcmitype/StillImage" />
        <dc:title></dc:title>
      </cc:Work>
    </rdf:RDF>
  </metadata>
  <defs
     id="defs3756" />
  <sodipodi:namedview
     pagecolor="#ffffff"
     bordercolor="#666666"
     borderopacity="1"
     objecttolerance="10"
     gridtolerance="10"
     guidetolerance="10"
     inkscape:pageopacity="0"
     inkscape:pageshadow="2"
     inkscape:window-width="640"
     inkscape:window-height="480"
     id="namedview3754"
     showgrid="false"
     inkscape:zoom="14.75"
     inkscape:cx="7.4576271"
     inkscape:cy="8.0677966"
     inkscape:window-x="0"
     inkscape:window-y="0"
     inkscape:window-maximized="1"
     inkscape:current-layer="svg3752" />
  <path
     d="m 9.3823942,11.270017 a 0.5,0.5 0 0 1 0,-0.708 l 2.6469998,-2.6459999 -2.6469998,-2.646 a 0.5006316,0.5006316 0 0 1 0.7079998,-0.708 l 3,3 a 0.5,0.5 0 0 1 0,0.708 l -3,2.9999999 a 0.5,0.5 0 0 1 -0.7079998,0 z"
     id="path3746"
     inkscape:connector-curvature="0"
     style="clip-rule:evenodd;fill-rule:evenodd" />
  <path
     d="m 3.1515174,8.0178436 a 0.50338983,0.5 0 0 1 0.50339,-0.5 h 9.0610166 a 0.50338983,0.5 0 0 1 0,1 H 3.6549074 a 0.50338983,0.5 0 0 1 -0.50339,-0.5 z"
     id="path3748"
     inkscape:connector-curvature="0"
     style="clip-rule:evenodd;fill-rule:evenodd;stroke-width:1.00338411" />
</svg>
