<?xml version="1.0" encoding="UTF-8" standalone="no"?>
<svg
   xmlns:dc="http://purl.org/dc/elements/1.1/"
   xmlns:cc="http://creativecommons.org/ns#"
   xmlns:rdf="http://www.w3.org/1999/02/22-rdf-syntax-ns#"
   xmlns:svg="http://www.w3.org/2000/svg"
   xmlns="http://www.w3.org/2000/svg"
   xmlns:sodipodi="http://sodipodi.sourceforge.net/DTD/sodipodi-0.dtd"
   xmlns:inkscape="http://www.inkscape.org/namespaces/inkscape"
   class="bi bi-box-arrow-up"
   width="1em"
   height="1em"
   viewBox="0 0 16 16"
   fill="currentColor"
   version="1.1">
  <metadata>
    <rdf:RDF>
      <cc:Work rdf:about="">
        <dc:format>image/svg+xml</dc:format>
        <dc:type rdf:resource="http://purl.org/dc/dcmitype/StillImage" />
      </cc:Work>
    </rdf:RDF>
  </metadata>
  <defs />
  <path d="m 4.646,6.7870974 a 0.5,0.5 0 0 0 0.708,0 l 2.646,-2.647 2.646,2.647 a 0.5006316,0.5006316 0 0 0 0.708,-0.708 l -3,-3 a 0.5,0.5 0 0 0 -0.708,0 l -3,3 a 0.5,0.5 0 0 0 0,0.708 z"/>
  <path d="m 8,14.068691 a 0.5,0.50338983 0 0 0 0.5,-0.50339 V 4.5042844 a 0.5,0.50338983 0 0 0 -1,0 v 9.0610166 a 0.5,0.50338983 0 0 0 0.5,0.50339 z"/>
  <path d="M 1.5,13.46302 A 1.5,1.53698 0 0 0 3,15 h 10 a 1.5,1.53698 0 0 0 1.5,-1.53698 V 5.2657935 A 1.5,1.53698 0 0 0 13,3.7288136 h -1.5 a 0.5,0.51232666 0 0 0 0,1.0246533 H 13 a 0.5,0.51232666 0 0 1 0.5,0.5123266 V 13.46302 A 0.5,0.51232666 0 0 1 13,13.975347 H 3 A 0.5,0.51232666 0 0 1 2.5,13.46302 V 5.2657935 A 0.5,0.51232666 0 0 1 3,4.7534669 h 1.5 a 0.5,0.51232666 0 0 0 0,-1.0246533 H 3 A 1.5,1.53698 0 0 0 1.5,5.2657935 Z"/>
</svg>
